# xmcd CD database file
#
# Track frame offsets:
#	150
#	36482
#	65063
#	97758
#	129191
#	153830
#	185912
#	217952
#	240798
#	262868
#
# Disc length: 3950 seconds
#
# Revision: 0
# Processed by: cddbd v1.5.2PL0 Copyright (c) Steve Scherf et al.
# Submitted via: CDex 1.91
#
DISCID=7c0f6c0a
DTITLE=The Buck Creek Jazz Band - Anna's Boys
DYEAR=1998
DGENRE=Jazz
TTITLE0=Algiers Strut
TTITLE1=Revolutionary Blues
TTITLE2=Faraway Blues
TTITLE3=Mobile Blues
TTITLE4=I Got the Stinger
TTITLE5=1919 March
TTITLE6=If I Had My Way, Dear
TTITLE7=Downhearted Blues
TTITLE8=And Let the Rest of the World Go By
TTITLE9=Sidewalk Blues
EXTD=YEAR: 1998
EXTT0=
EXTT1=
EXTT2=
EXTT3=
EXTT4=
EXTT5=
EXTT6=
EXTT7=
EXTT8=
EXTT9=
PLAYORDER=
